# xmcd
#
# Track frame offsets:
#	150
#	15058
#	29958
#	43667
#	57892
#	72406
#	86750
#	101732
#	116003
#	130251
#
# Disc length: 1909 seconds
#
# Revision: 1
# Processed by: cddbd v1.5.2PL0 Copyright (c) Steve Scherf et al.
# Submitted via: EasyCDDAExtractor 16.0.6.1
#
DISCID=8807730a
DTITLE=Συλλογικός δίσκος - Ιστορία ρεμπέτικου και λαϊκού 02-3
DYEAR=2007
DGENRE=Ποικίλη
TTITLE0=Ρούκουνας Κώστας ή Σαμιωτάκης - Κάτω στα Λεμονάδικα [Βαγγ. Παπάζογλου]
TTITLE1=Αμπατζή Ρίτα - Το πασούμι, το πασούμι [Μεν. Μιχαηλίδης-Γ. Πετροπουλέας
TTITLE1=]
TTITLE2=Βαμβακάρης Μάρκος - Φραγκοσυριανή [Μ. Βαμβακάρης]
TTITLE3=Εσκενάζυ Ρόζα - Του Πειραιά το αλάνι [Ν. Μάθεσης-Δημ. Μπαρούσης ή Λορέ
TTITLE3=ντζος]
TTITLE4=Βαμβακάρης Μάρκος - Ο ισοβίτης [Μ. Βαμβακάρης]
TTITLE5=Ρούκουνας Κώστας ή Σαμιωτάκης - Στο Βοτανικό [Κ. Ρούκουνας]
TTITLE6=Εσκενάζυ Ρόζα - Η γλεντζού η Σμυρνιά [Δημ. Μανισαλής ή Λαδόπουλος]
TTITLE7=Ρούκουνας Κώστας ή Σαμιωτάκης - Ο Πίκινος [Κ. Ρούκουνας]
TTITLE8=Αμπατζή Ρίτα - Το μάγκικο [Κ. Καρίπης-Γ. Πετροπουλέας]
TTITLE9=Ρούκουνας Κώστας ή Σαμιωτάκης - Γειά σου Λόλα, μερακλού [Δημ. Μπαρούση
TTITLE9=ς ή Λορέντζος]
EXTD=
EXTT0=
EXTT1=
EXTT2=
EXTT3=
EXTT4=
EXTT5=
EXTT6=
EXTT7=
EXTT8=
EXTT9=
PLAYORDER=
